PathFileType	4	(x/y/z)	S02_M20_T09
DataRate	CameraRate	NumFrames	NumMarkers	Units	OrigDataRate	OrigDataStartFrame	OrigNumFrames
240	240	6	51	mm	240	284	453
Frame#	Time	Sternum			R.Acromium			L.Acromium			Top.Head			R.ASIS			L.ASIS			R.PSIS			L.PSIS			R.Great.Tro			L.Great.Tro			R.Iliac.Crest			L.Iliac.Crest			V.Sacral			R.Thigh.Upper.Post			R.Thigh.Lower.Ant			R.Thigh.Lower.Post			R.Thigh.Upper.Ant			R.Knee.Lat			R.Knee.Med			R.Shank.Upper.Post			R.Shank.Lower.Ant			R.Shank.Lower.Post			R.Shank.Upper.Ant			R.Ankle.Lat			R.Ankle.Med			R.Heel.Upper			R.Heel.Med			R.Heel.Lat			R.Toe.Lat			R.Toe.Med			R.Toe.Tip			L.Thigh.Upper.Post			L.Thigh.Lower.Ant			L.Thigh.Lower.Post			L.Thigh.Upper.Ant			L.Knee.Lat			L.Knee.Med			L.Shank.Upper.Post			L.Shank.Lower.Ant			L.Shank.Lower.Post			L.Shank.Upper.Ant			L.Ankle.Lat			L.Ankle.Med			L.Heel.Upper			L.Heel.Med			L.Heel.Lat			L.Toe.Lat			L.Toe.Med			L.Toe.Tip			Cervical.Spine			Back			
		X1	Y1	Z1	X2	Y2	Z2	X3	Y3	Z3	X4	Y4	Z4	X5	Y5	Z5	X6	Y6	Z6	X7	Y7	Z7	X8	Y8	Z8	X9	Y9	Z9	X10	Y10	Z10	X11	Y11	Z11	X12	Y12	Z12	X13	Y13	Z13	X14	Y14	Z14	X15	Y15	Z15	X16	Y16	Z16	X17	Y17	Z17	X18	Y18	Z18	X19	Y19	Z19	X20	Y20	Z20	X21	Y21	Z21	X22	Y22	Z22	X23	Y23	Z23	X24	Y24	Z24	X25	Y25	Z25	X26	Y26	Z26	X27	Y27	Z27	X28	Y28	Z28	X29	Y29	Z29	X30	Y30	Z30	X31	Y31	Z31	X32	Y32	Z32	X33	Y33	Z33	X34	Y34	Z34	X35	Y35	Z35	X36	Y36	Z36	X37	Y37	Z37	X38	Y38	Z38	X39	Y39	Z39	X40	Y40	Z40	X41	Y41	Z41	X42	Y42	Z42	X43	Y43	Z43	X44	Y44	Z44	X45	Y45	Z45	X46	Y46	Z46	X47	Y47	Z47	X48	Y48	Z48	X49	Y49	Z49	X50	Y50	Z50	X51	Y51	Z51	

284	1.1792	22.064	1067.8	311.93	-69.377	1300.9	458.99	-86.221	1315.9	166.96	-31.222	1591.2	329.41	-23.401	893.89	426.63	14.421	892.15	214.59	-222.08	943.46	331.48	-211.57	947.57	257.22	-126.84	790.97	502.07	-84.967	800.89	107.9	-133.31	942.61	466.51	-96.024	945.04	128.03	-246.73	904.66	281.71	-177.95	593.62	470.99	-151.02	503.23	429.69	-221.15	517.02	445.85	-112.29	581.03	452.38	-232.03	437.84	424.71	-244.45	434.06	281.34	-378.03	268.17	398.47	-333.12	168.57	374.45	-395.53	197.35	383.62	-312.84	231.98	396.59	-410	101.59	362.73	-400.68	117.6	282.05	-475.99	94.193	307.65	-466.42	61.227	280.04	-475.33	62.885	343.66	-316.76	37.471	383.54	-286.05	32.911	276.35	-235.51	55.651	330.79	-18.859	575.29	128.57	82.519	535.67	146.42	15.664	493.95	152.59	39.013	617.47	122.58	100.71	459.49	154.76	82.186	448.03	296.38	111.53	272.06	156.12	217.53	236.27	166.87	149.82	209.24	172.2	172.41	296.52	151.8	244.18	123.13	178.37	253.71	131.82	261.12	209.08	63.646	217.07	229.51	50.657	254.99	230.61	38.277	194.13	377.61	113.86	161.12	384.44	148.51	265.12	427.38	189.91	215.49	-151.17	1369.1	323.02	-239.51	1120.4	319.74
285	1.1833	27.59	1066.2	311.7	-63.74	1299.5	458.45	-80.627	1314.3	166.32	-25.863	1589.8	328.4	-18.349	892.39	426.74	20.042	890.55	214.73	-216.74	942.17	331.01	-206.09	946.25	256.79	-122.19	789.77	502	-79.113	799.72	107.7	-128.35	941.26	466.3	-90.188	943.59	127.82	-241.32	903.39	281.19	-173.94	592.62	470.91	-147.27	502.11	429.72	-217.38	516.18	445.72	-108.31	579.76	452.47	-228.57	437.04	424.62	-240.68	433.21	281.27	-375.87	268.58	398.48	-331.93	168.59	374.41	-394.05	197.91	383.65	-311.08	231.84	396.51	-409.45	102.25	362.8	-400.17	118.23	282.1	-475.54	95.212	307.77	-466.16	62.222	280.11	-475.03	63.848	343.75	-316.66	37.453	383.55	-285.97	32.875	276.34	-235.41	55.468	330.77	-12.293	574.34	128.47	89.122	535.04	146.71	22.392	493.09	152.61	45.443	616.69	122.72	107.35	458.74	155.08	88.516	447.31	296.65	118.03	271.26	156.47	223.95	235.4	167.46	156.23	208.41	172.62	178.92	295.67	152.28	250.51	122.3	179	259.85	130.94	261.8	215.36	62.817	217.57	235.69	49.808	255.57	236.97	37.468	194.69	384.01	113.12	162.1	390.53	147.75	266.15	433.57	189.18	216.64	-145.51	1367.8	322.38	-234.06	1119.2	319.36
286	1.1875	33.16	1064.7	311.47	-58.063	1298.2	457.9	-74.983	1312.7	165.66	-20.482	1588.5	327.36	-13.245	890.89	426.86	25.693	888.97	214.85	-211.37	940.9	330.57	-200.58	944.96	256.38	-117.5	788.58	501.9	-73.248	798.6	107.48	-123.33	939.91	466.1	-84.35	942.16	127.61	-235.87	902.15	280.69	-169.85	591.62	470.81	-143.42	500.99	429.74	-213.51	515.33	445.58	-104.23	578.49	452.54	-225	436.23	424.52	-236.82	432.36	281.18	-373.63	269.02	398.49	-330.69	168.64	374.36	-392.5	198.52	383.68	-309.26	231.73	396.42	-408.85	102.97	362.88	-399.62	118.91	282.16	-475.03	96.328	307.92	-465.87	63.313	280.21	-474.7	64.904	343.85	-316.56	37.438	383.56	-285.88	32.837	276.33	-235.3	55.277	330.74	-5.7152	573.4	128.4	95.748	534.44	146.99	29.147	492.26	152.66	51.881	615.94	122.84	114	458.02	155.42	94.954	446.65	296.93	124.34	270.47	156.82	230.15	234.4	168.07	162.37	207.53	173.04	185.28	294.75	152.78	256.46	121.35	179.61	265.62	129.89	262.47	221.19	61.926	218.06	241.39	48.851	256.11	242.83	36.581	195.22	390	112.07	163.07	396.26	146.63	267.18	439.46	188.04	217.82	-139.82	1366.5	321.72	-228.57	1117.9	318.99
287	1.1917	38.774	1063.1	311.23	-52.345	1296.9	457.32	-69.289	1311.2	164.99	-15.078	1587.2	326.3	-8.0846	889.4	426.97	31.377	887.41	214.95	-205.95	939.67	330.16	-195.04	943.7	256	-112.77	787.39	501.79	-67.37	797.53	107.26	-118.25	938.58	465.89	-78.51	940.73	127.42	-230.39	900.93	280.21	-165.68	590.63	470.69	-139.47	499.88	429.73	-209.55	514.48	445.41	-100.07	577.24	452.59	-221.32	435.42	424.41	-232.85	431.51	281.07	-371.3	269.51	398.5	-329.41	168.73	374.31	-390.88	199.17	383.72	-307.38	231.66	396.32	-408.2	103.75	362.97	-399.04	119.65	282.23	-474.47	97.546	308.09	-465.54	64.505	280.32	-474.33	66.055	343.98	-316.44	37.429	383.58	-285.78	32.797	276.32	-235.19	55.079	330.7	0.86827	572.49	128.36	102.39	533.86	147.27	35.92	491.45	152.75	58.32	615.2	122.96	120.67	457.3	155.77	101.49	446.05	297.23	130.48	269.68	157.17	236.12	233.28	168.68	168.26	206.62	173.44	191.49	293.77	153.3	262.04	120.27	180.21	271.02	128.67	263.15	226.58	60.989	218.52	246.62	47.798	256.62	248.2	35.631	195.7	395.6	110.74	164.02	401.64	145.16	268.22	445.06	186.5	219.01	-134.09	1365.3	321.04	-223.02	1116.7	318.62
288	1.1958	44.435	1061.6	310.97	-46.586	1295.6	456.72	-63.545	1309.7	164.31	-9.6519	1586	325.22	-2.8651	887.93	427.07	37.1	885.88	215.03	-200.48	938.46	329.76	-189.47	942.47	255.64	-107.99	786.22	501.64	-61.476	796.49	107.04	-113.1	937.26	465.7	-72.667	939.32	127.24	-224.87	899.74	279.76	-161.42	589.64	470.54	-135.43	498.78	429.72	-205.48	513.64	445.23	-95.819	576	452.63	-217.53	434.6	424.27	-228.8	430.65	280.95	-368.88	270.03	398.5	-328.07	168.86	374.27	-389.18	199.88	383.75	-305.43	231.62	396.22	-407.49	104.59	363.09	-398.41	120.45	282.32	-473.85	98.87	308.28	-465.18	65.805	280.44	-473.92	67.308	344.12	-316.3	37.423	383.6	-285.69	32.756	276.31	-235.08	54.874	330.66	7.449	571.58	128.34	109.03	533.3	147.54	42.7	490.67	152.89	64.754	614.47	123.07	127.33	456.6	156.13	108.12	445.5	297.54	136.45	268.89	157.53	241.87	232.04	169.32	173.91	205.67	173.84	197.55	292.72	153.83	267.26	119.09	180.79	276.08	127.29	263.83	231.54	60.023	218.97	251.39	46.666	257.09	253.08	34.636	196.15	400.81	109.12	164.95	406.68	143.36	269.26	450.37	184.58	220.22	-128.33	1364.1	320.33	-217.42	1115.5	318.24
289	1.2	50.145	1060.2	310.7	-40.787	1294.4	456.1	-57.751	1308.2	163.6	-4.203	1584.8	324.12	2.4173	886.48	427.17	42.864	884.38	215.08	-194.97	937.28	329.39	-183.88	941.27	255.31	-103.16	785.06	501.48	-55.563	795.51	106.81	-107.88	935.96	465.5	-66.82	937.94	127.06	-219.31	898.58	279.34	-157.07	588.66	470.37	-131.29	497.69	429.69	-201.32	512.79	445.04	-91.476	574.79	452.66	-213.63	433.8	424.13	-224.64	429.81	280.8	-366.38	270.6	398.49	-326.69	169.03	374.23	-387.42	200.64	383.78	-303.42	231.63	396.11	-406.72	105.5	363.23	-397.72	121.32	282.43	-473.17	100.3	308.5	-464.77	67.216	280.59	-473.46	68.666	344.28	-316.15	37.422	383.62	-285.59	32.715	276.31	-234.97	54.664	330.61	14.019	570.69	128.37	115.67	532.75	147.81	49.476	489.91	153.06	71.177	613.75	123.17	134	455.9	156.5	114.82	445	297.88	142.25	268.11	157.89	247.41	230.7	169.96	179.32	204.68	174.24	203.47	291.61	154.38	272.14	117.81	181.37	280.81	125.78	264.51	236.08	59.051	219.41	255.7	45.476	257.53	257.49	33.617	196.57	405.65	107.24	165.87	411.4	141.24	270.31	455.43	182.28	221.44	-122.52	1362.9	319.59	-211.76	1114.3	317.86
